<svg clip-rule="evenodd" fill-rule="evenodd" height="2500" stroke-linejoin="round" stroke-miterlimit="2" viewBox="268.384 279.386 3007.856 3022.818" width="2496" xmlns="http://www.w3.org/2000/svg">

<path d="m2763.87 510.779v1867.96c0 127.71-103.683 231.393-231.393 231.393h-2032.7c-127.709 0-231.393-103.683-231.393-231.393v-1867.96c0-127.71 103.684-231.393 231.393-231.393h2032.7c127.71 0 231.393 103.683 231.393 231.393z" fill="#CC922F"/>

<path d="m993.41 1071.66v118.029c0 58.862-47.788 106.65-106.65 106.65h-4.405c-58.862 0-106.65-47.788-106.65-106.65v-118.029c0-58.861 47.788-106.65 106.65-106.65h4.405c58.862 0 106.65 47.789 106.65 106.65zm-188.344 632.61c84.677-84.677 162.445 20.49 188.344 49.945 25.9 29.455 205.333 255.125 541.83 255.125s526.243-288.294 526.243-663.77v-264.473c0-85.74 46.486-116.09 100.032-116.09s106.236 34.524 106.236 110.445v268.422c0 174.329-37.658 473.104-249.362 684.809 0 0-165.482 181.787-475.061 181.787s-481.987-100.771-704.233-323.018c-62.098-62.097-96.127-121.085-34.029-183.182z" fill="#1C3957"/>

</svg>