<?xml version="1.0" encoding="utf-8"?>
<!-- Generator: Adobe Illustrator 19.0.0, SVG Export Plug-In . SVG Version: 6.00 Build 0)  -->
<svg version="1.1" id="Layer_2" xmlns="http://www.w3.org/2000/svg" xmlns:xlink="http://www.w3.org/1999/xlink" x="0px" y="0px"
	 viewBox="0 0 281 80.9" style="enable-background:new 0 0 281 80.9;" xml:space="preserve">
<style type="text/css">
	.st0{fill:#1170B8;}
	.st1{fill:#F08821;}
</style>
<path class="st0" d="M226.7,30.1v-4h12.6v4c-1.4,0.4-2.5,1.6-2.5,3.3v16.8h4.8c2.4,0,4.5-1.5,5.4-3.6l3.1,0v8.9h-23.3v-5.2
	c1.5-0.4,2.5-1.7,2.5-3.3V33.5C229.3,31.6,228.1,30.5,226.7,30.1"/>
<path class="st0" d="M210.8,39.2c0-16.4,13.3-29.8,29.8-29.8c16.4,0,29.8,13.3,29.8,29.8c0,16.4-13.3,29.8-29.8,29.8
	C224.1,68.9,210.8,55.6,210.8,39.2 M216.9,39.2c0,13,10.6,23.6,23.6,23.6c13,0,23.6-10.6,23.6-23.6c0-13-10.6-23.6-23.6-23.6
	C227.5,15.6,216.9,26.1,216.9,39.2"/>
<path class="st1" d="M233.7,23.7c2.7-2,6-3.1,9.6-3.1c9.1,0,16.4,7.3,16.4,16.4c0,5.7-2.9,10.8-7.4,13.7v-6.4h-7.1
	c0,0-0.8,3.6-3.8,3.6h-2.4l0-13.5c0-1.4,1.2-2.5,2.5-2.6l0-8H233.7z"/>
<polygon class="st0" points="18.8,32.2 18.8,37.7 31,37.7 31,43.3 18.8,43.3 18.8,49.4 32.9,49.4 32.9,55.5 11.4,55.5 11.4,26.1 
	32.7,26.1 32.7,32.2 "/>
<polygon class="st0" points="56.6,26.1 56.6,49.4 68.1,49.4 68.1,55.5 49.1,55.5 49.1,26.1 "/>
<rect x="125.7" y="26.1" class="st0" width="6.7" height="29.4"/>
<path class="st1" d="M40.9,47.8c2.2,0,4,1.8,4,4s-1.8,4-4,4c-2.2,0-4-1.8-4-4S38.7,47.8,40.9,47.8"/>
<path class="st0" d="M93.7,48.2v0.3c0,5.4-3.5,7.3-11.1,7.3c-9.5,0-12.3-2.3-12.3-12.1c0-9.3,3.3-11.8,11.8-11.8
	c8.5,0,11.7,2.3,11.7,11.1V45H76.8v1c0,4,1.6,5.1,5.4,5.1c3.3,0,4.8-0.6,5-2.9H93.7z M76.8,41.2h10.3v-0.8c-0.1-3.1-1.4-3.6-5.2-3.6
	C78.3,36.8,76.8,37.3,76.8,41.2"/>
<path class="st0" d="M109.9,50.7c3.3,0,4.7-0.7,4.7-3.6h6.5c0,6.8-3.1,8.8-11.6,8.8c-8.5,0-11.5-2.6-11.5-11.9
	c0-9.4,3-11.9,11.5-11.9c8.5,0,11.6,1.9,11.6,8.7h-6.5c-0.1-2.9-1.5-3.6-4.7-3.6c-4,0-5.1,0.7-5.1,6.8
	C104.8,49.9,106,50.7,109.9,50.7"/>
<path class="st0" d="M160.8,48.2v0.3c0,5.4-3.5,7.3-11.1,7.3c-9.5,0-12.3-2.3-12.3-12.1c0-9.3,3.3-11.8,11.8-11.8
	c8.5,0,11.7,2.3,11.7,11.1V45H144v1c0,4,1.6,5.1,5.4,5.1c3.3,0,4.8-0.6,5-2.9H160.8z M144,41.2h10.3v-0.8c0-3.1-1.4-3.6-5.2-3.6
	C145.5,36.8,144,37.3,144,41.2"/>
<path class="st0" d="M193.2,50.7c3.3,0,4.7-0.7,4.7-3.6h6.5c0,6.8-3.1,8.8-11.6,8.8c-8.5,0-11.5-2.6-11.5-11.9
	c0-9.4,3-11.9,11.5-11.9c8.5,0,11.6,1.9,11.6,8.7h-6.5c-0.1-2.9-1.5-3.6-4.7-3.6c-4,0-5.1,0.7-5.1,6.8
	C188.1,49.9,189.2,50.7,193.2,50.7"/>
<path class="st0" d="M179.7,38c0,0-1.6,0-1.8,0c-3.7,0-5.4,2.1-5.4,6.7v10.9h-6.7V32.3h6.7v3.5c1.6-2.6,3.7-3.9,6.4-3.9h0.8V38z"/>
</svg>
